Coordinates
version=1
nRows=43
nColumns=19
inDegrees=yes

Units are S.I. units (second, meters, Newtons, ...)
Angles are in degrees.

endheader
time	1_Force_X	1_Force_Y	1_Force_Z	1_Moment_X	1_Moment_Y	1_Moment_Z	1_COP_X	1_COP_Y	1_COP_Z	2_Force_X	2_Force_Y	2_Force_Z	2_Moment_X	2_Moment_Y	2_Moment_Z	2_COP_X	2_COP_Y	2_COP_Z
0.9800	25.901	-6.595	4.907	-0.327	0.000	0.532	-3.611	2.223	-1.888	-0.214	0.000	0.250	0.00000	3.32328	0.00000	0.00000	11.26782	0.00000
0.9825	25.728	-7.115	4.864	-0.331	0.000	0.534	-3.698	3.084	-1.799	-0.215	0.000	0.248	0.00000	3.20441	0.00000	0.00000	9.42946	0.00000
0.9850	26.034	-6.423	4.860	-0.335	0.000	0.525	-3.609	2.909	-2.147	-0.215	0.000	0.251	0.00000	3.61263	0.00000	0.00000	8.98166	0.00000
0.9875	25.727	-5.372	4.907	-0.340	0.000	0.551	-3.784	3.766	-2.191	-0.215	0.000	0.248	0.00000	2.06688	0.00000	0.00000	7.80138	0.00000
0.9900	25.642	-6.064	4.997	-0.346	0.000	0.545	-3.653	2.906	-2.280	-0.213	0.000	0.250	0.00000	2.45430	0.00000	0.00000	8.55055	0.00000
0.9925	25.640	-5.712	5.043	-0.340	0.000	0.560	-3.476	3.936	-2.449	-0.215	0.000	0.250	0.00000	1.67671	0.00000	0.00000	6.66421	0.00000
0.9950	25.905	-7.111	5.042	-0.330	0.000	0.542	-3.786	2.223	-1.845	-0.214	0.000	0.251	0.00000	2.81144	0.00000	0.00000	12.09798	0.00000
0.9975	25.904	-7.287	4.952	-0.335	0.000	0.528	-3.698	2.222	-1.888	-0.214	0.000	0.251	0.00000	3.52093	0.00000	0.00000	11.64681	0.00000
1.0000	25.949	-7.460	5.174	-0.330	0.000	0.531	-3.392	2.392	-2.059	-0.214	0.000	0.253	0.00000	3.39361	0.00000	0.00000	9.74197	0.00000
1.0025	25.725	-6.242	4.997	-0.333	0.000	0.535	-3.569	2.738	-1.756	-0.215	0.000	0.249	0.00000	3.19248	0.00000	0.00000	9.91760	0.00000
1.0050	25.903	-7.116	4.730	-0.333	0.000	0.530	-3.569	2.913	-1.668	-0.213	0.000	0.249	0.00000	3.39246	0.00000	0.00000	9.69699	0.00000
1.0075	25.549	-5.722	4.466	-0.341	0.000	0.544	-3.915	3.593	-2.323	-0.213	0.000	0.249	0.00000	2.52104	0.00000	0.00000	8.05148	0.00000
1.0100	25.774	-5.894	5.039	-0.346	0.000	0.542	-3.826	3.248	-2.455	-0.214	0.000	0.249	0.00000	2.56117	0.00000	0.00000	8.08561	0.00000
1.0125	35.685	101.278	-18.611	-0.284	0.000	0.592	-3.265	2.397	-1.581	-0.210	0.000	0.250	0.00000	2.36521	0.00000	0.00000	10.15303	0.00000
1.0150	42.873	491.517	-55.923	-0.307	0.000	0.585	0.868	-9.109	-1.026	-0.165	0.000	0.271	0.00000	-0.57560	0.00000	0.00000	5.01336	0.00000
1.0175	100.787	692.021	-36.731	-0.312	0.000	0.589	5.967	-1.314	-12.067	-0.220	0.000	0.268	0.00000	0.44600	0.00000	0.00000	94.16701	0.00000
1.0200	74.008	990.208	-110.676	-0.327	0.000	0.601	36.475	130.876	-66.794	-0.348	0.000	0.189	0.00000	17.18745	0.00000	0.00000	-2.24886	0.00000
1.0225	-24.072	1110.930	-62.982	-0.317	0.000	0.603	38.060	246.811	-121.235	-0.361	0.000	0.161	0.00000	12.15627	0.00000	0.00000	-0.32567	0.00000
1.0250	29.591	1098.423	21.828	-0.322	0.000	0.604	90.441	389.143	-174.686	-0.366	0.000	0.147	0.00000	8.74290	0.00000	0.00000	2.93802	0.00000
1.0275	-1.093	949.499	90.558	-0.322	0.000	0.609	123.431	510.001	-257.323	-0.376	0.000	0.166	0.00000	11.68187	0.00000	0.00000	3.12393	0.00000
1.0300	-8.669	769.431	142.920	-0.321	0.000	0.608	111.687	634.983	-252.895	-0.385	0.000	0.186	0.00000	6.29281	0.00000	0.00000	1.21026	0.00000
1.0325	17.582	636.077	158.738	-0.322	0.000	0.613	98.444	724.241	-105.632	-0.388	0.000	0.186	0.00000	1.53893	0.00000	0.00000	7.58469	0.00000
1.0350	30.767	584.434	178.302	-0.321	0.000	0.604	46.440	718.431	30.185	-0.386	0.000	0.191	0.00000	-1.63931	0.00000	0.00000	-0.24536	0.00000
1.0375	38.030	523.190	144.935	-0.322	0.000	0.603	36.330	655.488	79.023	-0.388	0.000	0.197	0.00000	0.03885	0.00000	0.00000	7.78387	0.00000
1.0400	35.913	487.545	89.677	-0.325	0.000	0.589	15.897	571.997	119.408	-0.389	0.000	0.194	0.00000	3.69352	0.00000	0.00000	4.38721	0.00000
1.0425	40.558	469.094	25.271	-0.329	0.000	0.576	-11.624	527.527	144.324	-0.393	0.000	0.193	0.00000	7.28362	0.00000	0.00000	5.53132	0.00000
1.0450	41.370	467.387	-40.243	-0.328	0.000	0.549	-32.750	515.431	164.480	-0.392	0.000	0.193	0.00000	10.19404	0.00000	0.00000	4.94557	0.00000
1.0475	43.252	465.491	-98.697	-0.333	0.000	0.536	-24.504	506.052	153.920	-0.389	0.000	0.190	0.00000	16.03170	0.00000	0.00000	3.86933	0.00000
1.0500	36.178	436.744	-130.060	-0.337	0.000	0.531	-3.558	502.815	95.291	-0.387	0.000	0.185	0.00000	19.22107	0.00000	0.00000	1.79447	0.00000
1.0525	33.731	414.094	-146.846	-0.334	0.000	0.532	4.811	509.670	48.313	-0.388	0.000	0.174	0.00000	14.00821	0.00000	0.00000	1.15630	0.00000
1.0550	37.372	407.532	-140.474	-0.331	0.000	0.532	-3.868	525.132	0.456	-0.388	0.000	0.166	0.00000	10.20734	0.00000	0.00000	1.97997	0.00000
1.0575	34.861	383.631	-131.057	-0.334	0.000	0.521	-1.215	518.987	-36.392	-0.388	0.000	0.159	0.00000	12.15139	0.00000	0.00000	1.06860	0.00000
1.0600	34.924	361.938	-123.611	-0.336	0.000	0.511	13.763	488.516	-74.222	-0.385	0.000	0.154	0.00000	14.16726	0.00000	0.00000	2.11369	0.00000
1.0625	32.630	356.636	-125.672	-0.337	0.000	0.503	25.761	466.157	-94.073	-0.383	0.000	0.150	0.00000	14.78829	0.00000	0.00000	0.40571	0.00000
1.0650	30.317	353.050	-122.329	-0.337	0.000	0.502	17.618	455.628	-104.898	-0.383	0.000	0.145	0.00000	15.08988	0.00000	0.00000	1.30727	0.00000
1.0675	27.483	364.880	-123.488	-0.334	0.000	0.503	14.113	441.324	-112.624	-0.382	0.000	0.137	0.00000	14.72477	0.00000	0.00000	1.46066	0.00000
1.0700	30.288	381.315	-126.279	-0.334	0.000	0.505	21.139	421.565	-119.323	-0.381	0.000	0.131	0.00000	14.93148	0.00000	0.00000	2.86257	0.00000
1.0725	30.889	394.813	-128.133	-0.336	0.000	0.501	19.443	411.068	-117.275	-0.381	0.000	0.130	0.00000	17.99218	0.00000	0.00000	1.90573	0.00000
1.0750	32.160	406.967	-137.099	-0.336	0.000	0.497	13.906	410.126	-104.970	-0.381	0.000	0.131	0.00000	18.92850	0.00000	0.00000	1.70472	0.00000
1.0775	34.497	428.080	-140.520	-0.335	0.000	0.498	21.010	410.332	-102.264	-0.381	0.000	0.130	0.00000	18.36575	0.00000	0.00000	2.11902	0.00000
1.0800	32.566	441.048	-133.611	-0.334	0.000	0.496	27.546	415.138	-101.451	-0.379	0.000	0.127	0.00000	19.41007	0.00000	0.00000	1.45458	0.00000
1.0825	31.610	456.696	-128.074	-0.333	0.000	0.497	28.107	419.128	-98.685	-0.379	0.000	0.126	0.00000	19.27117	0.00000	0.00000	2.05321	0.00000
1.0850	32.130	481.139	-127.345	-0.332	0.000	0.498	23.813	424.786	-96.772	-0.381	0.000	0.126	0.00000	18.41481	0.00000	0.00000	1.42476	0.00000
